<?xml version="1.0" encoding="UTF-8" standalone="no"?>
<svg
   xmlns:dc="http://purl.org/dc/elements/1.1/"
   xmlns:cc="http://creativecommons.org/ns#"
   xmlns:rdf="http://www.w3.org/1999/02/22-rdf-syntax-ns#"
   xmlns:svg="http://www.w3.org/2000/svg"
   xmlns="http://www.w3.org/2000/svg"
   xmlns:sodipodi="http://sodipodi.sourceforge.net/DTD/sodipodi-0.dtd"
   xmlns:inkscape="http://www.inkscape.org/namespaces/inkscape"
   aria-hidden="true"
   focusable="false"
   data-prefix="fas"
   data-icon="database"
   class="svg-inline--fa fa-database fa-w-14"
   role="img"
   viewBox="0 0 448 512"
   version="1.1"
   id="svg897"
   sodipodi:docname="database-solid.svg"
   inkscape:version="1.0.1 (c497b03c, 2020-09-10)">
  <metadata
     id="metadata903">
    <rdf:RDF>
      <cc:Work
         rdf:about="">
        <dc:format>image/svg+xml</dc:format>
        <dc:type
           rdf:resource="http://purl.org/dc/dcmitype/StillImage" />
        <dc:title></dc:title>
      </cc:Work>
    </rdf:RDF>
  </metadata>
  <defs
     id="defs901" />
  <sodipodi:namedview
     pagecolor="#ffffff"
     bordercolor="#666666"
     borderopacity="1"
     objecttolerance="10"
     gridtolerance="10"
     guidetolerance="10"
     inkscape:pageopacity="0"
     inkscape:pageshadow="2"
     inkscape:window-width="1398"
     inkscape:window-height="1028"
     id="namedview899"
     showgrid="false"
     inkscape:zoom="1.4910714"
     inkscape:cx="224"
     inkscape:cy="256"
     inkscape:window-x="3032"
     inkscape:window-y="178"
     inkscape:window-maximized="0"
     inkscape:current-layer="svg897" />
  <path
     fill="currentColor"
     d="M448 73.143v45.714C448 159.143 347.667 192 224 192S0 159.143 0 118.857V73.143C0 32.857 100.333 0 224 0s224 32.857 224 73.143zM448 176v102.857C448 319.143 347.667 352 224 352S0 319.143 0 278.857V176c48.125 33.143 136.208 48.572 224 48.572S399.874 209.143 448 176zm0 160v102.857C448 479.143 347.667 512 224 512S0 479.143 0 438.857V336c48.125 33.143 136.208 48.572 224 48.572S399.874 369.143 448 336z"
     id="path895" />
  <path
     style="fill:#0044aa;stroke-width:0.670659"
     d="M 188.79042,510.82217 C 132.567,507.43751 86.940979,498.82876 51.305389,484.8814 27.130435,475.4196 9.4644849,462.65213 3.3048735,450.19066 L 0.67065868,444.8614 0.4838622,391.00555 C 0.38112406,361.38483 0.43266894,337.1497 0.59840628,337.1497 c 0.16573733,0 2.69244222,1.48301 5.61489972,3.29557 34.396687,21.33351 90.134714,36.14287 157.762744,41.91691 39.10805,3.33903 87.4525,3.09823 127.42515,-0.63469 62.98599,-5.88206 117.38626,-20.81544 150.3855,-41.28222 2.92245,-1.81256 5.44916,-3.29557 5.61489,-3.29557 0.16574,0 0.21729,24.23513 0.11455,53.85585 l -0.1868,53.85585 -2.61687,5.29417 c -14.54855,29.43305 -80.22123,52.29671 -171.62657,59.75105 -15.091,1.23071 -69.28308,1.8193 -84.29548,0.91555 z"
     id="path907" />
  <path
     style="fill:#0044aa;stroke-width:0.670659"
     d="M 205.55689,351.44983 C 99.120262,348.50981 13.447281,321.12023 1.7105639,286.28032 0.35366864,282.25244 0.33048551,281.16757 0.49892915,229.58132 l 0.17172953,-52.59255 5.36526942,3.34078 c 32.8343179,20.44484 87.1007639,35.38116 150.5628719,41.44097 39.25103,3.74797 89.00828,3.8771 130.44312,0.33853 64.55211,-5.5128 121.22214,-20.79561 154.92215,-41.7795 l 5.36527,-3.34078 0.17179,52.39765 c 0.19043,58.08378 0.32752,56.01428 -4.20666,63.50476 -2.3493,3.88105 -9.29342,11.08715 -14.42084,14.96488 -37.28296,28.19611 -129.4432,46.18675 -223.31674,43.59377 z"
     id="path909" />
  <path
     style="fill:#0044aa;stroke-width:0.670659"
     d="M 196.83832,191.21218 C 151.62656,188.73442 119.81784,184.423 88.142518,176.47932 42.521546,165.03828 12.307442,148.50123 3.141894,129.956 L 0.67065868,124.95579 V 96.047904 67.140013 L 3.2875302,61.845136 C 15.345497,37.447498 65.296417,16.38321 134.46707,6.5267643 166.2261,2.0012726 184.75831,0.82005429 224,0.82005429 c 39.33254,0 57.74348,1.17763391 89.79702,5.74375781 C 382.69287,16.378237 432.667,37.479927 444.71247,61.843154 l 2.61687,5.292896 0.22014,26.527783 c 0.24132,29.081277 0.0479,31.197607 -3.46587,37.928977 -2.82132,5.40478 -11.28423,13.78954 -19.22133,19.04384 -30.25147,20.0262 -84.12536,33.88865 -152.91018,39.34578 -12.2331,0.97053 -64.29185,1.82283 -75.11378,1.22975 z"
     id="path911" />
</svg>
